<?xml version="1.0" standalone="no"?>
<!DOCTYPE svg PUBLIC "-//W3C//DTD SVG 20010904//EN"
 "http://www.w3.org/TR/2001/REC-SVG-20010904/DTD/svg10.dtd">
<svg version="1.0" xmlns="http://www.w3.org/2000/svg"
 width="500.000000pt" height="500.000000pt" viewBox="0 0 500.000000 500.000000"
 preserveAspectRatio="xMidYMid meet">

<g transform="translate(0.000000,500.000000) scale(0.100000,-0.100000)"
fill="#FFFFFF" stroke="none">
<path d="M2160 4153 c-37 -15 -39 -33 -40 -280 l0 -243 -116 0 c-63 0 -124 -5
-135 -10 -16 -9 -19 -22 -19 -89 0 -89 6 -98 65 -103 l40 -3 5 -140 c6 -147
16 -190 66 -278 60 -107 181 -209 290 -244 l54 -17 0 -68 c0 -76 -17 -120 -53
-140 -16 -9 -104 -15 -317 -18 -292 -6 -296 -6 -352 -32 -72 -34 -142 -103
-176 -176 l-27 -57 -3 -479 c-3 -470 -2 -479 19 -522 25 -53 83 -105 163 -144
85 -43 86 -42 86 40 0 52 -5 78 -20 102 -19 32 -20 51 -20 482 0 435 1 449 21
485 37 66 33 65 364 71 300 5 300 5 357 32 76 35 151 107 185 177 23 45 29 74
33 150 l5 93 55 21 c156 57 283 194 335 363 9 27 18 106 22 177 l6 127 37 0
c52 0 60 13 60 102 0 66 -3 79 -19 88 -11 5 -72 10 -135 10 l-116 0 0 243 c-1
268 -2 274 -63 284 -29 4 -40 1 -61 -20 l-26 -26 0 -241 0 -240 -230 0 -230 0
0 240 0 241 -25 24 c-23 24 -53 30 -85 18z"/>
<path d="M2715 2488 c-9 -45 -49 -111 -91 -153 -18 -19 -34 -37 -34 -40 0 -3
142 -5 316 -5 350 0 360 -2 402 -63 l22 -33 0 -460 c0 -440 -1 -460 -20 -484
-24 -31 -30 -170 -7 -170 8 0 43 14 78 32 76 38 154 114 169 166 8 25 10 190
8 507 l-3 470 -28 56 c-35 72 -106 143 -176 177 -56 26 -56 26 -343 30 l-286
4 -7 -34z"/>
<path d="M1762 2148 c-8 -8 -12 -65 -12 -189 0 -148 3 -180 16 -193 14 -14 94
-16 734 -16 640 0 720 2 734 16 13 13 16 45 16 193 0 124 -4 181 -12 189 -17
17 -1459 17 -1476 0z m248 -160 c13 -25 13 -31 0 -55 -21 -38 -81 -45 -104
-11 -9 12 -16 29 -16 38 0 9 7 26 16 38 23 34 83 27 104 -10z m230 0 c13 -25
13 -31 0 -55 -20 -37 -70 -43 -99 -14 -25 25 -27 49 -5 79 23 34 83 27 104
-10z m851 12 c12 -7 19 -21 19 -40 0 -19 -7 -33 -19 -40 -29 -15 -523 -14
-539 2 -7 7 -12 24 -12 38 0 14 5 31 12 38 16 16 510 17 539 2z"/>
<path d="M1762 1678 c-8 -8 -12 -66 -12 -193 0 -127 4 -185 12 -193 17 -17
1459 -17 1476 0 8 8 12 66 12 193 0 127 -4 185 -12 193 -17 17 -1459 17 -1476
0z m235 -150 c39 -37 24 -85 -33 -102 -28 -9 -74 28 -74 59 0 29 36 65 64 65
11 0 30 -10 43 -22z m233 2 c52 -52 -14 -136 -75 -96 -37 24 -42 62 -14 92 27
29 62 31 89 4z m876 -27 c15 -58 13 -58 -287 -58 l-274 0 -3 28 c-7 59 -17 57
282 57 l276 0 6 -27z"/>
<path d="M1766 1194 c-13 -13 -16 -44 -16 -188 0 -120 4 -176 12 -184 17 -17
1459 -17 1476 0 8 8 12 63 12 183 0 154 -2 174 -18 188 -17 16 -82 17 -735 17
-637 0 -717 -2 -731 -16z m236 -141 c38 -34 7 -103 -47 -103 -29 0 -65 32 -65
58 0 10 7 28 16 40 18 27 69 30 96 5z m230 0 c38 -34 10 -103 -43 -103 -32 0
-69 30 -69 58 0 10 7 28 16 40 18 27 69 30 96 5z m871 -14 c5 -9 7 -28 3 -43
l-6 -26 -278 2 -277 3 -3 28 c-7 59 -17 58 279 55 236 -3 273 -5 282 -19z"/>
</g>
</svg>
